<svg width="57" height="56" viewBox="0 0 57 56" fill="none" xmlns="http://www.w3.org/2000/svg">
<path d="M7.6665 25.3612C7.6665 16.6669 7.6665 12.3187 10.3686 9.61886C13.0707 6.91905 17.4167 6.91675 26.1109 6.91675H30.7221C39.4163 6.91675 43.7646 6.91675 46.4644 9.61886C49.1642 12.321 49.1665 16.6669 49.1665 25.3612V29.9723C49.1665 38.6666 49.1665 43.0148 46.4644 45.7146C43.7623 48.4144 39.4163 48.4167 30.7221 48.4167H26.1109C17.4167 48.4167 13.0684 48.4167 10.3686 45.7146C7.66881 43.0125 7.6665 38.6666 7.6665 29.9723V25.3612Z" stroke="black" stroke-width="4.61111"/>
<path d="M38.7918 20.75C40.7018 20.75 42.2502 19.2017 42.2502 17.2917C42.2502 15.3817 40.7018 13.8334 38.7918 13.8334C36.8818 13.8334 35.3335 15.3817 35.3335 17.2917C35.3335 19.2017 36.8818 20.75 38.7918 20.75Z" fill="black"/>
<path d="M28.4167 34.5835C32.2366 34.5835 35.3333 31.4868 35.3333 27.6668C35.3333 23.8468 32.2366 20.7501 28.4167 20.7501C24.5967 20.7501 21.5 23.8468 21.5 27.6668C21.5 31.4868 24.5967 34.5835 28.4167 34.5835Z" stroke="black" stroke-width="4.61111"/>
</svg>
