<svg width="57" height="56" viewBox="0 0 57 56" fill="none" xmlns="http://www.w3.org/2000/svg">
<g clip-path="url(#clip0_22_322)">
<mask id="mask0_22_322" style="mask-type:luminance" maskUnits="userSpaceOnUse" x="0" y="0" width="57" height="56">
<path d="M0.749756 0H56.0831V55.3333H0.749756V0Z" fill="white"/>
</mask>
<g mask="url(#mask0_22_322)">
<mask id="mask1_22_322" style="mask-type:luminance" maskUnits="userSpaceOnUse" x="0" y="0" width="57" height="56">
<path d="M0.749756 0H56.0831V55.3333H0.749756V0Z" fill="white"/>
</mask>
<g mask="url(#mask1_22_322)">
<path d="M0.749756 27.6667C0.749756 39.478 8.15289 49.5625 18.5717 53.5304C18.3181 51.3701 18.0483 47.808 18.6293 45.3088C19.1296 43.16 21.8594 31.6184 21.8594 31.6184C21.8594 31.6184 21.0363 29.9699 21.0363 27.5283C21.0363 23.7011 23.2543 20.8422 26.0186 20.8422C28.3703 20.8422 29.5046 22.606 29.5046 24.7202C29.5046 27.0834 27.9991 30.6155 27.2221 33.8917C26.5743 36.633 28.5986 38.8694 31.3007 38.8694C36.1954 38.8694 39.9603 33.7072 39.9603 26.2557C39.9603 19.6595 35.2201 15.0507 28.4533 15.0507C20.619 15.0507 16.0195 20.9275 16.0195 27.0027C16.0195 29.3705 16.9301 31.9066 18.0691 33.2876C18.1662 33.3919 18.2348 33.5195 18.2683 33.658C18.3018 33.7965 18.2991 33.9413 18.2605 34.0784C18.0506 34.9499 17.5849 36.8197 17.495 37.2024C17.3728 37.7051 17.0961 37.8134 16.5728 37.569C13.1329 35.969 10.9841 30.9406 10.9841 26.9012C10.9841 18.2116 17.2944 10.2344 29.1796 10.2344C38.7338 10.2344 46.16 17.0427 46.16 26.1404C46.16 35.6324 40.1771 43.273 31.8678 43.273C29.0758 43.273 26.4544 41.8205 25.5552 40.1074C25.5552 40.1074 24.1742 45.3687 23.8399 46.6552C23.1897 49.1544 21.3868 52.3177 20.2686 54.1137C22.8462 54.9068 25.5806 55.3333 28.4164 55.3333C43.6953 55.3333 56.0831 42.9456 56.0831 27.6667C56.0831 12.3878 43.6953 0 28.4164 0C13.1375 0 0.749756 12.3878 0.749756 27.6667Z" fill="black"/>
</g>
</g>
</g>
<defs>
<clipPath id="clip0_22_322">
<rect width="55.3333" height="55.3333" fill="white" transform="translate(0.749756)"/>
</clipPath>
</defs>
</svg>
