<svg width="56" height="56" viewBox="0 0 56 56" fill="none" xmlns="http://www.w3.org/2000/svg">
<path d="M38.5217 13.4184C36.946 11.619 36.0776 9.30853 36.0778 6.91675H28.9536V35.5056C28.8998 37.0531 28.247 38.5192 27.133 39.5945C26.0189 40.6699 24.5306 41.2705 22.9822 41.2695C19.7084 41.2695 16.9878 38.5951 16.9878 35.2751C16.9878 31.3095 20.815 28.3354 24.7575 29.5573V22.2717C16.8034 21.2112 9.84058 27.3901 9.84058 35.2751C9.84058 42.9526 16.2039 48.4167 22.9592 48.4167C30.1986 48.4167 36.0778 42.5376 36.0778 35.2751V20.7731C38.9667 22.8478 42.4351 23.9609 45.9917 23.9548V16.8306C45.9917 16.8306 41.6572 17.0381 38.5217 13.4184Z" fill="black"/>
</svg>
