<svg width="56" height="56" viewBox="0 0 56 56" fill="none" xmlns="http://www.w3.org/2000/svg">
<path d="M23.5555 34.5834L35.5214 27.6667L23.5555 20.7501V34.5834ZM50.2077 16.5309C50.5075 17.6145 50.715 19.067 50.8533 20.9114C51.0147 22.7559 51.0839 24.3467 51.0839 25.7301L51.2222 27.6667C51.2222 32.7159 50.8533 36.4278 50.2077 38.8026C49.6314 40.8776 48.2941 42.2148 46.2191 42.7912C45.1355 43.0909 43.1528 43.2984 40.1094 43.4367C37.1122 43.5981 34.3686 43.6673 31.8325 43.6673L28.1666 43.8056C18.5064 43.8056 12.4889 43.4367 10.1141 42.7912C8.03914 42.2148 6.70192 40.8776 6.12553 38.8026C5.82581 37.7189 5.61831 36.2664 5.47997 34.422C5.31858 32.5776 5.24942 30.9867 5.24942 29.6034L5.11108 27.6667C5.11108 22.6176 5.47997 18.9056 6.12553 16.5309C6.70192 14.4559 8.03914 13.1187 10.1141 12.5423C11.1978 12.2426 13.1805 12.0351 16.2239 11.8967C19.2211 11.7353 21.9647 11.6662 24.5008 11.6662L28.1666 11.5278C37.8269 11.5278 43.8444 11.8967 46.2191 12.5423C48.2941 13.1187 49.6314 14.4559 50.2077 16.5309Z" fill="black"/>
</svg>
